<svg fill="none" height="628" viewBox="0 0 1634 628" width="1634" xmlns="http://www.w3.org/2000/svg" xmlns:xlink="http://www.w3.org/1999/xlink"><filter id="a" color-interpolation-filters="sRGB" filterUnits="userSpaceOnUse" height="522.558" width="1522.38" x="38.3021" y="26.7446"><feFlood flood-opacity="0" result="BackgroundImageFix"/><feColorMatrix in="SourceAlpha" result="hardAlpha" type="matrix" values="0 0 0 0 0 0 0 0 0 0 0 0 0 0 0 0 0 0 127 0"/><feOffset dy="10"/><feComposite in2="hardAlpha" operator="out"/><feColorMatrix type="matrix" values="0 0 0 0 0 0 0 0 0 0 0 0 0 0 0 0 0 0 0.2 0"/><feBlend in2="BackgroundImageFix" mode="normal" result="effect1_dropShadow_4009:20040"/><feBlend in="SourceGraphic" in2="effect1_dropShadow_4009:20040" mode="normal" result="shape"/></filter><path d="m0 0h1633.8v628h-1633.8z" fill="#034ea6"/><rect height="220.713" rx="9" stroke="#0572ec" stroke-width="2" width="354.619" x="956.715" y="184"/><rect height="47.0978" rx="8" stroke="#0572ec" stroke-width="2" width="332.455" x="967.797" y="272.654"/><rect height="47.0978" rx="8" stroke="#0572ec" stroke-width="2" width="332.455" x="966.231" y="210.186"/><rect height="25.8576" rx="8" stroke="#0572ec" stroke-width="2" width="92.3486" x="967.797" y="360.385"/><rect height="25.8576" rx="8" stroke="#0572ec" stroke-width="2" width="65.5675" x="1153.42" y="360.385"/><rect height="25.8576" rx="10" stroke="#0572ec" stroke-width="2" width="74.8024" x="1225.45" y="360.385"/><path d="m101.164 268.042-13.0962 13.096c-.3858.386-.6025.909-.6024 1.455l-.0014 52.405c-5.0769 3.311-8.9313 8.192-10.9756 13.898-2.0442 5.707-2.166 11.925-.3469 17.707s5.4794 10.81 10.4226 14.318 10.898 5.303 16.9559 5.111c6.059-.192 11.888-2.36 16.599-6.174 4.712-3.814 8.046-9.063 9.496-14.949 1.45-5.885.935-12.083-1.467-17.649-2.401-5.565-6.557-10.193-11.833-13.176l-.001-9.297c0-.544-.216-1.066-.6-1.452l-7.275-7.275 7.275-7.276c.386-.386.603-.909.603-1.455s-.217-1.069-.603-1.455l-7.275-7.275 7.275-7.276c.386-.386.603-.909.603-1.455v-8.73c0-.546-.217-1.069-.603-1.455l-11.64-11.641c-.386-.386-.91-.603-1.455-.603-.546 0-1.07.217-1.455.603zm7.275 100.4c-1.151 1.152-2.618 1.936-4.215 2.253-1.596.318-3.251.155-4.7553-.468-1.5041-.623-2.7896-1.678-3.6941-3.032-.9044-1.353-1.3872-2.945-1.3872-4.573s.4828-3.219 1.3872-4.573c.9045-1.353 2.19-2.408 3.6941-3.031 1.5043-.623 3.1593-.786 4.7553-.469 1.597.318 3.064 1.102 4.215 2.253 1.544 1.543 2.411 3.637 2.411 5.82s-.867 4.277-2.411 5.82z" stroke="#0572ec" stroke-width="2"/><path d="m1168.26 523.723-13.1-13.096c-.38-.386-.91-.603-1.45-.602l-52.41-.002c-3.31-5.077-8.19-8.931-13.89-10.975-5.71-2.045-11.93-2.167-17.71-.347-5.78 1.819-10.81 5.479-14.32 10.422s-5.3 10.898-5.11 16.957c.19 6.058 2.36 11.887 6.17 16.599 3.82 4.711 9.07 8.046 14.95 9.495 5.89 1.45 12.09.935 17.65-1.467 5.57-2.401 10.19-6.556 13.18-11.833l9.29-.001c.55 0 1.07-.216 1.46-.6l7.27-7.275 7.28 7.275c.38.386.91.603 1.45.603.55 0 1.07-.217 1.46-.603l7.27-7.275 7.28 7.275c.38.386.91.603 1.45.603h8.73c.55 0 1.07-.217 1.46-.603l11.64-11.64c.39-.386.6-.91.6-1.455 0-.546-.21-1.069-.6-1.455zm-100.4 7.275c-1.15-1.151-1.94-2.618-2.25-4.214-.32-1.597-.16-3.252.47-4.756.62-1.504 1.67-2.79 3.03-3.694 1.35-.905 2.94-1.387 4.57-1.387s3.22.482 4.57 1.387c1.36.904 2.41 2.19 3.03 3.694.63 1.504.79 3.159.47 4.756-.31 1.596-1.1 3.063-2.25 4.214-1.54 1.544-3.64 2.411-5.82 2.411s-4.28-.867-5.82-2.411z" stroke="#0572ec" stroke-width="2"/><rect height="36.0723" rx="18.0362" stroke="#0572ec" stroke-width="2" width="282.02" x="234.423" y="355.278"/><rect height="36.0723" rx="18.0362" stroke="#0572ec" stroke-width="2" width="282.02" x="1311.33" y="482.401"/><rect height="37.4898" rx="18.7449" stroke="#0572ec" stroke-width="2" width="293.101" x="1225.45" y="64.7409"/><path d="m305.441 564.323c4.839 0 8.762-3.923 8.762-8.762h-2c0 3.735-3.027 6.762-6.762 6.762zm-8.763-8.762c0 4.839 3.923 8.762 8.763 8.762v-2c-3.735 0-6.763-3.027-6.763-6.762zm8.763-8.763c-4.84 0-8.763 3.923-8.763 8.763h2c0-3.735 3.028-6.763 6.763-6.763zm8.762 8.763c0-4.84-3.923-8.763-8.762-8.763v2c3.735 0 6.762 3.028 6.762 6.763zm22.288 8.762c4.84 0 8.763-3.923 8.763-8.762h-2c0 3.735-3.028 6.762-6.763 6.762zm-8.762-8.762c0 4.839 3.923 8.762 8.762 8.762v-2c-3.735 0-6.762-3.027-6.762-6.762zm8.762-8.763c-4.839 0-8.762 3.923-8.762 8.763h2c0-3.735 3.027-6.763 6.762-6.763zm8.763 8.763c0-4.84-3.923-8.763-8.763-8.763v2c3.735 0 6.763 3.028 6.763 6.763zm29.05 0c0 3.735-3.027 6.762-6.762 6.762v2c4.839 0 8.762-3.923 8.762-8.762zm-6.762-6.763c3.735 0 6.762 3.028 6.762 6.763h2c0-4.84-3.923-8.763-8.762-8.763zm-6.763 6.763c0-3.735 3.028-6.763 6.763-6.763v-2c-4.84 0-8.763 3.923-8.763 8.763zm6.763 6.762c-3.735 0-6.763-3.027-6.763-6.762h-2c0 4.839 3.923 8.762 8.763 8.762zm31.05 2c4.84 0 8.763-3.923 8.763-8.762h-2c0 3.735-3.028 6.762-6.763 6.762zm-8.762-8.762c0 4.839 3.923 8.762 8.762 8.762v-2c-3.735 0-6.762-3.027-6.762-6.762zm8.762-8.763c-4.839 0-8.762 3.923-8.762 8.763h2c0-3.735 3.027-6.763 6.762-6.763zm8.763 8.763c0-4.84-3.923-8.763-8.763-8.763v2c3.735 0 6.763 3.028 6.763 6.763zm29.05 0c0 3.735-3.028 6.762-6.762 6.762v2c4.839 0 8.762-3.923 8.762-8.762zm-6.762-6.763c3.734 0 6.762 3.028 6.762 6.763h2c0-4.84-3.923-8.763-8.762-8.763zm-6.763 6.763c0-3.735 3.028-6.763 6.763-6.763v-2c-4.84 0-8.763 3.923-8.763 8.763zm6.763 6.762c-3.735 0-6.763-3.027-6.763-6.762h-2c0 4.839 3.923 8.762 8.763 8.762zm31.05 2c4.839 0 8.762-3.923 8.762-8.762h-2c0 3.735-3.027 6.762-6.762 6.762zm-8.763-8.762c0 4.839 3.923 8.762 8.763 8.762v-2c-3.735 0-6.763-3.027-6.763-6.762zm8.763-8.763c-4.84 0-8.763 3.923-8.763 8.763h2c0-3.735 3.028-6.763 6.763-6.763zm8.762 8.763c0-4.84-3.923-8.763-8.762-8.763v2c3.735 0 6.762 3.028 6.762 6.763zm29.051 0c0 3.735-3.028 6.762-6.763 6.762v2c4.84 0 8.763-3.923 8.763-8.762zm-6.763-6.763c3.735 0 6.763 3.028 6.763 6.763h2c0-4.84-3.923-8.763-8.763-8.763zm-6.763 6.763c0-3.735 3.028-6.763 6.763-6.763v-2c-4.839 0-8.763 3.923-8.763 8.763zm6.763 6.762c-3.735 0-6.763-3.027-6.763-6.762h-2c0 4.839 3.924 8.762 8.763 8.762z" fill="#0572ec"/><path d="m1407.31 228.517c4.84 0 8.76-3.923 8.76-8.762h-2c0 3.735-3.02 6.762-6.76 6.762zm-8.76-8.762c0 4.839 3.92 8.762 8.76 8.762v-2c-3.73 0-6.76-3.027-6.76-6.762zm8.76-8.763c-4.84 0-8.76 3.923-8.76 8.763h2c0-3.735 3.03-6.763 6.76-6.763zm8.76 8.763c0-4.84-3.92-8.763-8.76-8.763v2c3.74 0 6.76 3.028 6.76 6.763zm22.29 8.762c4.84 0 8.76-3.923 8.76-8.762h-2c0 3.735-3.02 6.762-6.76 6.762zm-8.76-8.762c0 4.839 3.92 8.762 8.76 8.762v-2c-3.73 0-6.76-3.027-6.76-6.762zm8.76-8.763c-4.84 0-8.76 3.923-8.76 8.763h2c0-3.735 3.03-6.763 6.76-6.763zm8.76 8.763c0-4.84-3.92-8.763-8.76-8.763v2c3.74 0 6.76 3.028 6.76 6.763zm29.05 0c0 3.735-3.02 6.762-6.76 6.762v2c4.84 0 8.76-3.923 8.76-8.762zm-6.76-6.763c3.74 0 6.76 3.028 6.76 6.763h2c0-4.84-3.92-8.763-8.76-8.763zm-6.76 6.763c0-3.735 3.03-6.763 6.76-6.763v-2c-4.84 0-8.76 3.923-8.76 8.763zm6.76 6.762c-3.73 0-6.76-3.027-6.76-6.762h-2c0 4.839 3.92 8.762 8.76 8.762zm31.05 2c4.84 0 8.77-3.923 8.77-8.762h-2c0 3.735-3.03 6.762-6.77 6.762zm-8.76-8.762c0 4.839 3.92 8.762 8.76 8.762v-2c-3.73 0-6.76-3.027-6.76-6.762zm8.76-8.763c-4.84 0-8.76 3.923-8.76 8.763h2c0-3.735 3.03-6.763 6.76-6.763zm8.77 8.763c0-4.84-3.93-8.763-8.77-8.763v2c3.74 0 6.77 3.028 6.77 6.763zm29.05 0c0 3.735-3.03 6.762-6.77 6.762v2c4.84 0 8.77-3.923 8.77-8.762zm-6.77-6.763c3.74 0 6.77 3.028 6.77 6.763h2c0-4.84-3.93-8.763-8.77-8.763zm-6.76 6.763c0-3.735 3.03-6.763 6.76-6.763v-2c-4.84 0-8.76 3.923-8.76 8.763zm6.76 6.762c-3.73 0-6.76-3.027-6.76-6.762h-2c0 4.839 3.92 8.762 8.76 8.762zm31.05 2c4.84 0 8.77-3.923 8.77-8.762h-2c0 3.735-3.03 6.762-6.77 6.762zm-8.76-8.762c0 4.839 3.92 8.762 8.76 8.762v-2c-3.73 0-6.76-3.027-6.76-6.762zm8.76-8.763c-4.84 0-8.76 3.923-8.76 8.763h2c0-3.735 3.03-6.763 6.76-6.763zm8.77 8.763c0-4.84-3.93-8.763-8.77-8.763v2c3.74 0 6.77 3.028 6.77 6.763zm29.05 0c0 3.735-3.03 6.762-6.77 6.762v2c4.84 0 8.77-3.923 8.77-8.762zm-6.77-6.763c3.74 0 6.77 3.028 6.77 6.763h2c0-4.84-3.93-8.763-8.77-8.763zm-6.76 6.763c0-3.735 3.03-6.763 6.76-6.763v-2c-4.84 0-8.76 3.923-8.76 8.763zm6.76 6.762c-3.73 0-6.76-3.027-6.76-6.762h-2c0 4.839 3.92 8.762 8.76 8.762z" fill="#0572ec"/><path d="m829.609 61.7043c8.38 0 15.173-6.7931 15.173-15.1729h-2c0 7.2752-5.897 13.1729-13.173 13.1729zm-15.173-15.1729c0 8.3798 6.794 15.1729 15.173 15.1729v-2c-7.275 0-13.173-5.8977-13.173-13.1729zm15.173-15.173c-8.379 0-15.173 6.7932-15.173 15.173h2c0-7.2753 5.898-13.173 13.173-13.173zm15.173 15.173c0-8.3798-6.793-15.173-15.173-15.173v2c7.276 0 13.173 5.8977 13.173 13.173zm41.519 15.1729c8.38 0 15.173-6.7931 15.173-15.1729h-2c0 7.2752-5.898 13.1729-13.173 13.1729zm-15.173-15.1729c0 8.3798 6.793 15.1729 15.173 15.1729v-2c-7.275 0-13.173-5.8977-13.173-13.1729zm15.173-15.173c-8.38 0-15.173 6.7932-15.173 15.173h2c0-7.2752 5.898-13.173 13.173-13.173zm15.173 15.173c0-8.3798-6.793-15.173-15.173-15.173v2c7.275 0 13.173 5.8978 13.173 13.173zm54.692 0c0 7.2752-5.898 13.1729-13.173 13.1729v2c8.38 0 15.173-6.7931 15.173-15.1729zm-13.173-13.173c7.275 0 13.173 5.8978 13.173 13.173h2c0-8.3798-6.793-15.173-15.173-15.173zm-13.173 13.173c0-7.2752 5.898-13.173 13.173-13.173v-2c-8.38 0-15.173 6.7932-15.173 15.173zm13.173 13.1729c-7.275 0-13.173-5.8977-13.173-13.1729h-2c0 8.3798 6.793 15.1729 15.173 15.1729zm56.692 2c8.375 0 15.175-6.7931 15.175-15.1729h-2c0 7.2752-5.9 13.1729-13.175 13.1729zm-15.173-15.1729c0 8.3798 6.793 15.1729 15.173 15.1729v-2c-7.275 0-13.173-5.8977-13.173-13.1729zm15.173-15.173c-8.38 0-15.173 6.7932-15.173 15.173h2c0-7.2752 5.898-13.173 13.173-13.173zm15.175 15.173c0-8.3798-6.8-15.173-15.175-15.173v2c7.275 0 13.175 5.8978 13.175 13.173zm54.69 0c0 7.2752-5.9 13.1729-13.17 13.1729v2c8.38 0 15.17-6.7931 15.17-15.1729zm-13.17-13.173c7.27 0 13.17 5.8978 13.17 13.173h2c0-8.3798-6.79-15.173-15.17-15.173zm-13.18 13.173c0-7.2752 5.9-13.173 13.18-13.173v-2c-8.38 0-15.18 6.7932-15.18 15.173zm13.18 13.1729c-7.28 0-13.18-5.8977-13.18-13.1729h-2c0 8.3798 6.8 15.1729 15.18 15.1729zm56.69 2c8.38 0 15.17-6.7931 15.17-15.1729h-2c0 7.2752-5.9 13.1729-13.17 13.1729zm-15.18-15.1729c0 8.3798 6.8 15.1729 15.18 15.1729v-2c-7.28 0-13.18-5.8977-13.18-13.1729zm15.18-15.173c-8.38 0-15.18 6.7932-15.18 15.173h2c0-7.2752 5.9-13.173 13.18-13.173zm15.17 15.173c0-8.3798-6.79-15.173-15.17-15.173v2c7.27 0 13.17 5.8978 13.17 13.173zm54.69 0c0 7.2752-5.9 13.1729-13.17 13.1729v2c8.38 0 15.17-6.7931 15.17-15.1729zm-13.17-13.173c7.27 0 13.17 5.8978 13.17 13.173h2c0-8.3798-6.79-15.173-15.17-15.173zm-13.17 13.173c0-7.2752 5.89-13.173 13.17-13.173v-2c-8.38 0-15.17 6.7932-15.17 15.173zm13.17 13.1729c-7.28 0-13.17-5.8977-13.17-13.1729h-2c0 8.3798 6.79 15.1729 15.17 15.1729z" fill="#0572ec"/><path d="m1198.1 593.079c8.38 0 15.18-6.793 15.18-15.173h-2c0 7.275-5.9 13.173-13.18 13.173zm-15.17-15.173c0 8.38 6.8 15.173 15.17 15.173v-2c-7.27 0-13.17-5.898-13.17-13.173zm15.17-15.173c-8.37 0-15.17 6.793-15.17 15.173h2c0-7.275 5.9-13.173 13.17-13.173zm15.18 15.173c0-8.38-6.8-15.173-15.18-15.173v2c7.28 0 13.18 5.898 13.18 13.173zm41.52 15.173c8.38 0 15.17-6.793 15.17-15.173h-2c0 7.275-5.9 13.173-13.17 13.173zm-15.18-15.173c0 8.38 6.8 15.173 15.18 15.173v-2c-7.28 0-13.18-5.898-13.18-13.173zm15.18-15.173c-8.38 0-15.18 6.793-15.18 15.173h2c0-7.275 5.9-13.173 13.18-13.173zm15.17 15.173c0-8.38-6.79-15.173-15.17-15.173v2c7.27 0 13.17 5.898 13.17 13.173zm54.69 0c0 7.275-5.9 13.173-13.17 13.173v2c8.38 0 15.17-6.793 15.17-15.173zm-13.17-13.173c7.27 0 13.17 5.898 13.17 13.173h2c0-8.38-6.79-15.173-15.17-15.173zm-13.17 13.173c0-7.275 5.89-13.173 13.17-13.173v-2c-8.38 0-15.17 6.793-15.17 15.173zm13.17 13.173c-7.28 0-13.17-5.898-13.17-13.173h-2c0 8.38 6.79 15.173 15.17 15.173zm56.69 2c8.38 0 15.17-6.793 15.17-15.173h-2c0 7.275-5.89 13.173-13.17 13.173zm-15.17-15.173c0 8.38 6.79 15.173 15.17 15.173v-2c-7.27 0-13.17-5.898-13.17-13.173zm15.17-15.173c-8.38 0-15.17 6.793-15.17 15.173h2c0-7.275 5.9-13.173 13.17-13.173zm15.17 15.173c0-8.38-6.79-15.173-15.17-15.173v2c7.28 0 13.17 5.898 13.17 13.173zm54.69 0c0 7.275-5.89 13.173-13.17 13.173v2c8.38 0 15.17-6.793 15.17-15.173zm-13.17-13.173c7.28 0 13.17 5.898 13.17 13.173h2c0-8.38-6.79-15.173-15.17-15.173zm-13.17 13.173c0-7.275 5.9-13.173 13.17-13.173v-2c-8.38 0-15.17 6.793-15.17 15.173zm13.17 13.173c-7.27 0-13.17-5.898-13.17-13.173h-2c0 8.38 6.79 15.173 15.17 15.173z" fill="#0572ec"/><g stroke="#0572ec"><path d="m141.985 48.3887h539.058v31.0606h-539.058z" stroke-width="1.76007"/><path d="m141.985 79.4492h539.058v31.0606h-539.058z" stroke-width="1.76007"/><path d="m141.985 110.51h539.058v31.0606h-539.058z" stroke-width="1.76007"/><path d="m141.985 141.57h539.058v31.0606h-539.058z" stroke-width="1.76007"/><path d="m141.985 172.631h539.058v31.0606h-539.058z" stroke-width="1.76007"/><path d="m141.985 203.692h539.058v31.0606h-539.058z" stroke-width="1.76007"/><path d="m141.985 234.752h539.058v31.0606h-539.058z" stroke-width="1.76007"/><path d="m141.985 265.813h539.058v31.0606h-539.058z" stroke-width="1.76007"/><path d="m234.423 48.3887h248.292v92.4381h-248.292z" stroke-width="1.76007" transform="matrix(0 1 -1 0 282.8117 -186.0343)"/><path d="m326.861 48.3887h248.292v92.4381h-248.292z" stroke-width="1.76007" transform="matrix(0 1 -1 0 375.2497 -278.4723)"/><path d="m506.049 48.3887h248.292v167.287h-248.292z" stroke-width="1.76007" transform="matrix(0 1 -1 0 554.4377 -457.6603)"/><path d="m680.815 48.3887h248.292v175.071h-248.292z" stroke-width="1.76007" transform="matrix(0 1 -1 0 729.2037 -632.4263)"/><path d="m567.415 454.212c-17.484 19.547-25.855 46.807-20.273 74.495" stroke-linecap="round" stroke-linejoin="round" stroke-miterlimit="10" stroke-width="2"/><path d="m680.418 440.752c-18.548-12.771-42.052-18.297-65.872-13.495-12.976 2.617-24.677 8.022-34.606 15.466" stroke-linecap="round" stroke-linejoin="round" stroke-miterlimit="10" stroke-width="2"/><path d="m715.991 494.66c-3.427-16.995-11.638-31.805-22.948-43.309" stroke-linecap="round" stroke-linejoin="round" stroke-miterlimit="10" stroke-width="2"/><path d="m717.737 513.416c.119-6.175-.428-12.459-1.699-18.765" stroke-linecap="round" stroke-linejoin="round" stroke-miterlimit="10" stroke-width="2"/><path d="m547.189 528.698c.249 1.236.524 2.461.824 3.674" stroke-linecap="round" stroke-linejoin="round" stroke-miterlimit="10" stroke-width="2"/><path d="m609.333 594.898c19.294-21.96 28.48-52.354 22.257-83.219" stroke-linecap="round" stroke-linejoin="round" stroke-miterlimit="10" stroke-width="2"/><path d="m654.307 517.667c-.384-3.405-.919-6.822-1.609-10.243l.024-.009c-2.356-11.684-13.736-19.246-25.419-16.89s-19.245 13.737-16.889 25.421c.622 5.222 7.408 42.156-22.39 70.036" stroke-linecap="round" stroke-linejoin="round" stroke-miterlimit="10" stroke-width="2"/><path d="m634.319 597.768c12.418-18.147 19.81-39.714 20.657-62.421" stroke-linecap="round" stroke-linejoin="round" stroke-miterlimit="10" stroke-width="2"/><path d="m590.03 500.168c-1.759 6.327-2.093 13.153-.706 20.032l.05-.01c4.084 20.255-3.774 40.141-18.719 52.383" stroke-linecap="round" stroke-linejoin="round" stroke-miterlimit="10" stroke-width="2"/><path d="m662.467 592.079c12.982-26.649 17.65-57.611 11.339-88.911-1.528-7.43-14.022-41.138-50.755-33.732-9.998 2.016-18.485 7.342-24.549 14.606" stroke-linecap="round" stroke-linejoin="round" stroke-miterlimit="10" stroke-width="2"/><path d="m617.229 448.683c-34.085 7.742-55.943 41.315-48.996 75.77l.033-.008c2.415 11.977-2.121 23.739-10.827 31.116" stroke-linecap="round" stroke-linejoin="round" stroke-miterlimit="10" stroke-width="2"/><path d="m692.704 572.35c6.199-23.253 7.288-48.25 2.21-73.437l-.012-.001c-5.99-29.709-31.469-50.515-60.44-51.79" stroke-linecap="round" stroke-linejoin="round" stroke-miterlimit="10" stroke-width="2"/></g><g filter="url(#a)"><rect fill="#02346e" height="423.777" rx="12.8374" width="219.367" x="705.753" y="89.3702"/><path d="m723.203 130.325c0-.591.479-1.07 1.069-1.07h182.328c.591 0 1.07.479 1.07 1.07v331.896c0 .591-.479 1.07-1.07 1.07h-182.328c-.59 0-1.069-.479-1.069-1.07z" fill="#0572ec"/><path d="m738.171 280.673h154.53v32.4014h-154.53z" fill="#fff"/><path d="m738.171 325.75h154.53v32.4014h-154.53z" fill="#fff"/><path d="m816.014 165.821c5.198 0 9.675.962 13.429 2.888 3.803 1.877 6.691 4.524 8.664 7.942 2.022 3.369 3.032 7.292 3.032 11.768 0 4.14-.842 7.701-2.527 10.686-1.636 2.936-4.091 5.511-7.364 7.725-3.225 2.166-7.461 4.332-12.707 6.498l-.939 10.397c-.24 2.31-1.829 3.465-4.765 3.465-3.032 0-4.621-1.155-4.765-3.465l-.939-14.296c-.096-.963.025-1.733.361-2.31.386-.578.987-1.035 1.805-1.372l4.982-2.022c3.851-1.588 6.883-3.08 9.097-4.476 2.263-1.396 3.923-2.96 4.982-4.693 1.107-1.733 1.661-3.778 1.661-6.137 0-3.61-1.228-6.498-3.682-8.664-2.407-2.166-5.825-3.249-10.253-3.249-6.113 0-11.287.891-15.523 2.672v6.425c0 1.685-.409 2.888-1.227 3.61s-2.214 1.083-4.188 1.083c-1.973 0-3.369-.361-4.187-1.083s-1.228-1.925-1.228-3.61v-9.169c0-1.011.145-1.829.434-2.455.288-.674.746-1.203 1.371-1.588 7.268-4.38 15.427-6.57 24.476-6.57zm-3.177 75.015c2.936 0 5.054.361 6.354 1.083 1.299.674 1.949 1.829 1.949 3.465v8.231c0 1.637-.65 2.816-1.949 3.538-1.3.674-3.418 1.011-6.354 1.011s-5.054-.337-6.353-1.011c-1.3-.722-1.95-1.901-1.95-3.538v-8.231c0-1.636.65-2.791 1.95-3.465 1.299-.722 3.417-1.083 6.353-1.083z" fill="#ffd480"/><rect fill="#0572ec" height="65.5003" rx="32.7502" width="424.51" x="1050.6" y="121.607"/><path clip-rule="evenodd" d="m1159.76 154.357c0 6.029-4.89 10.917-10.91 10.917-6.03 0-10.92-4.888-10.92-10.917s4.89-10.917 10.92-10.917c6.02 0 10.91 4.888 10.91 10.917zm-43.66 0c0 6.029-4.89 10.917-10.92 10.917s-10.92-4.888-10.92-10.917 4.89-10.917 10.92-10.917 10.92 4.888 10.92 10.917zm76.41 10.917c6.03 0 10.92-4.888 10.92-10.917s-4.89-10.917-10.92-10.917-10.91 4.888-10.91 10.917 4.88 10.917 10.91 10.917zm54.59-10.917c0 6.029-4.89 10.917-10.92 10.917s-10.92-4.888-10.92-10.917 4.89-10.917 10.92-10.917 10.92 4.888 10.92 10.917zm32.75 10.917c6.03 0 10.91-4.888 10.91-10.917s-4.88-10.917-10.91-10.917-10.92 4.888-10.92 10.917 4.89 10.917 10.92 10.917zm54.58-10.917c0 6.029-4.89 10.917-10.92 10.917s-10.91-4.888-10.91-10.917 4.88-10.917 10.91-10.917 10.92 4.888 10.92 10.917zm32.75 10.917c6.03 0 10.92-4.888 10.92-10.917s-4.89-10.917-10.92-10.917-10.92 4.888-10.92 10.917 4.89 10.917 10.92 10.917z" fill="#69e6ed" fill-rule="evenodd"/><rect fill="#0572ec" height="65.5003" rx="32.7502" width="424.51" x="48.4263" y="445.652"/><path clip-rule="evenodd" d="m157.593 478.402c0 6.029-4.887 10.917-10.916 10.917-6.03 0-10.917-4.888-10.917-10.917s4.887-10.917 10.917-10.917c6.029 0 10.916 4.888 10.916 10.917zm-43.667 0c0 6.029-4.887 10.917-10.916 10.917-6.0295 0-10.917-4.888-10.917-10.917s4.8875-10.917 10.917-10.917c6.029 0 10.916 4.888 10.916 10.917zm76.417 10.917c6.03 0 10.917-4.888 10.917-10.917s-4.887-10.917-10.917-10.917c-6.029 0-10.916 4.888-10.916 10.917s4.887 10.917 10.916 10.917zm54.584-10.917c0 6.029-4.887 10.917-10.917 10.917-6.029 0-10.916-4.888-10.916-10.917s4.887-10.917 10.916-10.917c6.03 0 10.917 4.888 10.917 10.917zm32.75 10.917c6.029 0 10.917-4.888 10.917-10.917s-4.888-10.917-10.917-10.917-10.917 4.888-10.917 10.917 4.888 10.917 10.917 10.917zm54.583-10.917c0 6.029-4.888 10.917-10.917 10.917s-10.916-4.888-10.916-10.917 4.887-10.917 10.916-10.917 10.917 4.888 10.917 10.917zm32.75 10.917c6.029 0 10.916-4.888 10.916-10.917s-4.887-10.917-10.916-10.917-10.917 4.888-10.917 10.917 4.888 10.917 10.917 10.917z" fill="#69e6ed" fill-rule="evenodd"/><path d="m337.634 192.625c-14 10.501-36.141 18.419-51.498 18.419-1.037 0-1.879.842-1.879 1.879 0 39.573 21.104 74.187 53.764 88.183.237.102.489.152.741.152.251 0 .503-.05.74-.152 32.66-13.996 53.764-48.61 53.764-88.183 0-1.037-.842-1.879-1.879-1.879-15.357 0-37.498-7.918-51.498-18.419-.667-.502-1.588-.502-2.255 0z" fill="#0572ec"/><g fill="#ffd480"><path d="m349.202 237.905h.477v-.477-5.647c0-2.748-1.092-5.383-3.034-7.326-1.943-1.943-4.578-3.034-7.326-3.034-2.747 0-5.382 1.091-7.325 3.034s-3.034 4.578-3.034 7.326v5.647.477h.476 2.824.477v-.477-5.647c0-1.746.693-3.421 1.928-4.655 1.234-1.235 2.908-1.928 4.654-1.928s3.42.693 4.655 1.928c1.234 1.234 1.928 2.909 1.928 4.655v5.647.477h.477z" stroke="#ffd480" stroke-width=".953326"/><path d="m354.85 238.84h-31.061c-.749 0-1.467.297-1.997.827-.529.529-.827 1.248-.827 1.997v21.177c0 .749.298 1.468.827 1.997.53.53 1.248.827 1.997.827h31.061c.749 0 1.467-.297 1.996-.827.53-.529.827-1.248.827-1.997v-21.177c0-.749-.297-1.468-.827-1.997-.529-.53-1.247-.827-1.996-.827z"/><path d="m630.32 27.3953-14.138 14.1388c-.417.4167-.651.9818-.651 1.571l-.001 56.5787c-5.482 3.5752-9.643 8.8452-11.85 15.0062-2.207 6.16-2.339 12.874-.375 19.116 1.964 6.243 5.916 11.672 11.253 15.459s11.766 5.725 18.307 5.518 12.835-2.548 17.921-6.665c5.087-4.118 8.687-9.786 10.252-16.14s1.009-13.046-1.583-19.055c-2.593-6.009-7.08-11.005-12.776-14.2257l-.002-10.037c.001-.5877-.232-1.1514-.647-1.5679l-7.855-7.8548 7.855-7.8549c.417-.4167.651-.9818.651-1.571s-.234-1.1543-.651-1.571l-7.855-7.8549 7.855-7.8548c.417-.4168.651-.9818.651-1.571v-9.4259c0-.5892-.234-1.1543-.651-1.571l-12.568-12.5678c-.416-.4166-.981-.6507-1.571-.6507-.589 0-1.154.2341-1.571.6507zm7.855 108.3977c-1.243 1.243-2.826 2.089-4.55 2.432s-3.511.167-5.134-.506c-1.624-.672-3.012-1.812-3.989-3.273-.976-1.461-1.497-3.18-1.497-4.937 0-1.758.521-3.476 1.497-4.937.977-1.462 2.365-2.601 3.989-3.273 1.623-.673 3.41-.849 5.134-.506s3.307 1.189 4.55 2.432c1.667 1.667 2.603 3.927 2.603 6.284s-.936 4.617-2.603 6.284z"/><path d="m1015.57 513.14 14.13-14.138c.42-.417.66-.982.66-1.571v-56.579c5.48-3.575 9.64-8.845 11.85-15.006 2.2-6.161 2.34-12.874.37-19.117-1.96-6.242-5.91-11.671-11.25-15.458-5.34-3.788-11.77-5.725-18.31-5.518s-12.83 2.548-17.92 6.665c-5.086 4.117-8.687 9.785-10.252 16.14-1.565 6.354-1.009 13.046 1.584 19.054 2.592 6.009 7.079 11.005 12.776 14.226l.001 10.037c0 .588.233 1.152.647 1.568l7.854 7.855-7.854 7.855c-.416.417-.65.982-.65 1.571s.234 1.154.65 1.571l7.854 7.855-7.854 7.855c-.416.416-.65.981-.65 1.571v9.426c0 .589.234 1.154.65 1.571l12.564 12.567c.42.417.99.651 1.58.651.58 0 1.15-.234 1.57-.651zm-7.86-108.397c1.24-1.243 2.83-2.089 4.55-2.432 1.73-.343 3.51-.167 5.14.505 1.62.673 3.01 1.812 3.98 3.274.98 1.461 1.5 3.179 1.5 4.937 0 1.757-.52 3.476-1.5 4.937-.97 1.461-2.36 2.601-3.98 3.273-1.63.673-3.41.849-5.14.506-1.72-.343-3.31-1.189-4.55-2.432-1.67-1.667-2.6-3.927-2.6-6.284s.93-4.617 2.6-6.284z"/></g><path d="m1089.38 414.999 6.75-18.824c.2-.554.17-1.165-.08-1.698l-24.17-51.158c3.43-5.574 4.94-12.116 4.3-18.63-.63-6.513-3.38-12.639-7.82-17.445-4.45-4.805-10.34-8.025-16.78-9.17s-13.09-.151-18.91 2.831c-5.83 2.981-10.52 7.786-13.36 13.681-2.84 5.896-3.67 12.559-2.37 18.973s4.66 12.227 9.57 16.552c4.91 4.326 11.1 6.927 17.63 7.406l4.28 9.074c.26.532.71.942 1.26 1.142l10.46 3.746-3.75 10.458c-.2.555-.17 1.166.08 1.698.25.533.71.944 1.26 1.143l10.46 3.747-3.75 10.457c-.2.555-.17 1.166.09 1.698l4.02 8.523c.25.533.71.944 1.26 1.143l16.73 5.995c.56.199 1.17.169 1.7-.083s.95-.705 1.14-1.259zm-53.4-94.655c.59-1.655 1.66-3.097 3.07-4.143 1.42-1.047 3.11-1.651 4.86-1.736 1.76-.086 3.5.351 5.01 1.256 1.5.904 2.71 2.235 3.46 3.824s1.01 3.365.76 5.104c-.26 1.738-1.03 3.361-2.21 4.663s-2.72 2.224-4.43 2.651c-1.7.426-3.5.337-5.15-.256-2.22-.795-4.03-2.439-5.04-4.57s-1.13-4.575-.33-6.793z" fill="#69e6ed"/><path d="m1337.17 476.642v7.102h7.11v-7.102zm-51.68 0h-7.1v7.102h7.1zm44.58-33.299v33.299h14.21v-33.299zm7.1 26.196h-51.68v14.205h51.68zm-44.58 7.103v-33.299h-14.2v33.299zm18.74-52.038c10.35 0 18.74 8.39 18.74 18.739h14.21c0-18.194-14.75-32.943-32.95-32.943zm0-14.204c-18.19 0-32.94 14.749-32.94 32.943h14.2c0-10.349 8.39-18.739 18.74-18.739z" fill="#ffd480"/><rect fill="#0572ec" height="78.3301" rx="14.2042" width="93.3047" x="1264.68" y="460.973"/><path clip-rule="evenodd" d="m1317.23 503.935c3.75-2.077 6.29-6.074 6.29-10.665 0-6.727-5.46-12.181-12.19-12.181-6.72 0-12.18 5.454-12.18 12.181 0 4.59 2.54 8.588 6.29 10.664v15.199h11.79z" fill="#02346e" fill-rule="evenodd"/><path d="m38.308 79.7579c-.084-1.1013.7407-2.0623 1.8421-2.1463l136.6689-10.4275c1.109-.0846 2.074.732 2.153 1.8414.598 8.3419 3.106 41.2435 7.293 68.1405 4.115 26.429 9.979 56.648 11.638 65.077.237 1.208-.644 2.33-1.873 2.386-7.53.339-33.145 1.623-73.881 4.965-40.535 3.326-64.0872 7.193-71.0581 8.438-1.1813.211-2.2821-.645-2.3734-1.842z" fill="#ffd480"/><path d="m75.0924 114.441c-.0839.004-1.0769-.757-1.5506-1.237-.8885-.907-1.4712-1.325-1.7508-1.31-.3914.02-.602.284-.7435.796-.0722.228-.2283.46-.2151.712.019.363 1.193 1.368 2.3966 1.865-1.6335-.139-1.9999-.175-2.3634-.156-1.0626.055-1.5763.418-1.5398 1.117.0175.336.169.552.8282.826.487.199.9344.176 1.3818.152.6152-.032 2.1295-.027 3.3834-.176l-1.1604 1.939c-.8777 1.448-1.2249 1.241-1.2001 1.717.0234.447.4484 1.07.756 1.054.5313-.028 1.2393-.429 2.4617-2.792.0787 2.042.4359 2.977 1.135 2.94.6431-.033.9626-.358.9319-.946-.0117-.223-.0835-1.061-.3963-2.755 1.0388.563 2.3424 1.364 3.6299 1.858.5429.195.8843.29 1.0241.283.3356-.018 1.1275-.424 1.0953-1.039-.0263-.503-.4985-.955-.9738-.931l-4.167-1.941 2.2768-.427c.833-.156 2.3843-.517 2.704-1.375.2489-.602-.3072-1.049-.7825-1.025-.5313.028-1.0538.224-1.4895.471-.3268.185-.7404.319-1.4895.47.6389-.65 1.2558-1.187 1.1988-2.278-.0219-.419-.1749-.663-.5384-.644-.5592.029-.9509.582-1.584 1.344l-1.3207 1.555c-.116-.611-.2481-1.529-.2787-2.116-.0614-1.175-.2054-1.784-.4099-1.942-.2045-.157-.3737-.176-.4576-.172-1.0066.053-.9317 4.17-.7919 4.163zm18.3227-.957c-.0839.004-1.077-.757-1.5506-1.237-.8886-.907-1.4712-1.325-1.7508-1.31-.3915.02-.602.284-.7435.796-.0722.228-.2283.46-.2151.712.019.363 1.1929 1.367 2.3965 1.865-1.6334-.139-1.9999-.176-2.3634-.157-1.0625.056-1.5763.419-1.5397 1.118.0175.336.169.552.8282.826.487.199.9344.176 1.3818.152.6152-.032 2.1295-.027 3.3834-.176l-1.1604 1.939c-.8777 1.447-1.2249 1.241-1.2001 1.717.0234.447.4484 1.07.756 1.054.5313-.028 1.2393-.43 2.4617-2.793.0787 2.043.4359 2.978 1.1349 2.941.6432-.033.9626-.358.932-.946-.0117-.223-.0835-1.061-.3963-2.755 1.0388.563 2.3423 1.364 3.6298 1.857.543.196.8845.291 1.0245.283.335-.017 1.127-.423 1.095-1.038-.026-.503-.499-.955-.974-.931l-4.1668-1.941 2.2768-.427c.833-.156 2.384-.517 2.704-1.375.249-.602-.307-1.05-.783-1.025-.531.028-1.0533.224-1.489.471-.3268.185-.7404.319-1.4895.47.6389-.65 1.2557-1.187 1.1988-2.278-.0219-.419-.1749-.663-.5384-.645-.5592.03-.9509.583-1.584 1.345l-1.3207 1.555c-.116-.611-.2481-1.529-.2788-2.116-.0613-1.175-.2053-1.784-.4098-1.942-.2045-.157-.3737-.176-.4576-.172-1.0066.053-.9317 4.17-.7919 4.163zm18.3229-.957c-.084.004-1.077-.757-1.551-1.237-.888-.907-1.471-1.325-1.751-1.31-.391.02-.602.283-.743.795-.072.229-.228.461-.215.713.019.363 1.193 1.367 2.396 1.865-1.633-.139-2-.176-2.363-.157-1.063.056-1.576.419-1.54 1.118.018.336.169.552.828.826.487.199.935.176 1.382.152.615-.032 2.13-.027 3.384-.177l-1.161 1.94c-.878 1.447-1.225 1.241-1.2 1.717.023.447.448 1.07.756 1.054.531-.028 1.239-.43 2.462-2.793.078 2.043.436 2.978 1.135 2.941.643-.033.962-.359.932-.946-.012-.223-.084-1.061-.397-2.755 1.039.563 2.343 1.364 3.63 1.857.543.196.885.291 1.024.283.336-.017 1.128-.423 1.096-1.038-.027-.504-.499-.956-.974-.931l-4.167-1.941 2.277-.427c.833-.156 2.384-.517 2.704-1.375.249-.602-.308-1.05-.783-1.025-.531.028-1.054.223-1.489.47-.327.186-.741.32-1.49.471.639-.65 1.256-1.187 1.199-2.278-.022-.419-.175-.664-.538-.645-.56.03-.951.583-1.584 1.345l-1.321 1.555c-.116-.611-.248-1.529-.279-2.116-.061-1.175-.205-1.784-.41-1.942-.204-.157-.373-.177-.457-.172-1.007.052-.932 4.17-.792 4.163zm18.322-.957c-.083.004-1.077-.757-1.55-1.237-.889-.907-1.471-1.325-1.751-1.311-.391.021-.602.284-.743.796-.073.228-.229.461-.216.713.019.363 1.193 1.367 2.397 1.865-1.633-.139-2-.176-2.363-.157-1.063.056-1.577.419-1.54 1.118.017.336.169.552.828.826.487.199.934.175 1.382.152.615-.032 2.129-.027 3.383-.177l-1.16 1.939c-.878 1.448-1.225 1.242-1.2 1.717.023.448.448 1.07.756 1.054.531-.027 1.239-.429 2.461-2.792.079 2.043.436 2.978 1.135 2.941.644-.034.963-.359.932-.946-.011-.224-.083-1.061-.396-2.755 1.039.563 2.342 1.364 3.63 1.857.543.196.884.29 1.024.283.336-.017 1.127-.423 1.095-1.038-.026-.504-.498-.956-.974-.931l-4.166-1.941 2.276-.427c.833-.156 2.385-.518 2.704-1.375.249-.602-.307-1.05-.782-1.025-.531.028-1.054.223-1.49.47-.326.186-.74.319-1.489.471.639-.651 1.256-1.187 1.199-2.278-.022-.419-.175-.664-.539-.645-.559.029-.951.583-1.584 1.345l-1.32 1.555c-.116-.611-.249-1.529-.279-2.117-.062-1.174-.206-1.783-.41-1.941-.205-.157-.374-.177-.458-.172-1.006.052-.931 4.17-.792 4.163zm18.323-.957c-.084.004-1.077-.757-1.551-1.237-.888-.907-1.471-1.325-1.75-1.311-.392.021-.602.284-.744.796-.072.228-.228.461-.215.712.019.364 1.193 1.368 2.397 1.866-1.634-.139-2-.176-2.364-.157-1.062.056-1.576.419-1.54 1.118.018.335.17.552.829.826.487.199.934.175 1.382.152.615-.032 2.129-.027 3.383-.177l-1.161 1.939c-.877 1.448-1.224 1.242-1.2 1.717.024.448.449 1.07.756 1.054.532-.027 1.24-.429 2.462-2.792.079 2.043.436 2.977 1.135 2.941.643-.034.963-.359.932-.946-.012-.224-.083-1.061-.396-2.755 1.038.562 2.342 1.364 3.63 1.857.543.196.884.29 1.024.283.335-.018 1.127-.423 1.095-1.039-.026-.503-.498-.955-.974-.93l-4.167-1.941 2.277-.428c.833-.155 2.384-.517 2.704-1.375.249-.601-.307-1.049-.783-1.024-.531.028-1.053.223-1.489.47-.327.186-.74.319-1.49.471.639-.651 1.256-1.188 1.199-2.278-.022-.42-.175-.664-.538-.645-.559.029-.951.583-1.584 1.345l-1.321 1.555c-.116-.611-.248-1.53-.279-2.117-.061-1.174-.205-1.783-.409-1.941-.205-.158-.374-.177-.458-.172-1.007.052-.932 4.17-.792 4.163z" fill="#034ea6"/><path d="m69.9453 142.675c-.0839.004-1.0769-.757-1.5506-1.237-.8885-.907-1.4711-1.325-1.7508-1.311-.3914.021-.602.284-.7435.796-.0722.228-.2282.461-.2151.712.019.364 1.193 1.368 2.3966 1.866-1.6335-.139-1.9999-.176-2.3634-.157-1.0626.055-1.5763.419-1.5398 1.118.0175.335.169.552.8282.826.487.199.9344.175 1.3818.152.6152-.032 2.1295-.027 3.3834-.177l-1.1604 1.939c-.8777 1.448-1.2249 1.242-1.2001 1.717.0234.448.4485 1.07.756 1.054.5313-.028 1.2393-.429 2.4617-2.792.0787 2.043.4359 2.977 1.135 2.941.6431-.034.9626-.359.9319-.946-.0117-.224-.0835-1.061-.3963-2.755 1.0388.562 2.3424 1.363 3.6299 1.857.5429.196.8843.29 1.0241.283.3356-.018 1.1275-.423 1.0953-1.039-.0263-.503-.4985-.955-.9738-.93l-4.167-1.941 2.2768-.428c.8331-.155 2.3843-.517 2.704-1.375.2489-.601-.3072-1.049-.7825-1.024-.5313.028-1.0538.223-1.4895.47-.3268.185-.7404.319-1.4895.471.6389-.651 1.2558-1.188 1.1988-2.278-.0219-.42-.1749-.664-.5384-.645-.5592.029-.9509.582-1.584 1.345l-1.3207 1.555c-.116-.611-.2481-1.53-.2787-2.117-.0614-1.174-.2054-1.784-.4099-1.941-.2045-.158-.3737-.177-.4576-.172-1.0066.052-.9317 4.17-.7919 4.163zm18.3227-.958c-.0839.005-1.077-.756-1.5506-1.236-.8886-.907-1.4712-1.325-1.7508-1.311-.3915.021-.602.284-.7435.796-.0722.228-.2283.461-.2151.712.019.364 1.1929 1.368 2.3966 1.866-1.6335-.139-1.9999-.176-2.3634-.157-1.0626.055-1.5763.419-1.5398 1.118.0175.335.169.552.8282.826.487.198.9344.175 1.3818.152.6152-.032 2.1295-.027 3.3834-.177l-1.1604 1.939c-.8777 1.448-1.2249 1.242-1.2001 1.717.0234.448.4484 1.07.756 1.054.5313-.028 1.2393-.429 2.4617-2.792.0787 2.043.4359 2.977 1.135 2.941.6431-.034.9626-.359.9319-.946-.0117-.224-.0835-1.061-.3963-2.755 1.0388.562 2.3423 1.363 3.6298 1.857.543.196.8844.29 1.0242.283.3355-.018 1.1274-.424 1.0953-1.039-.0263-.503-.4985-.955-.9739-.93l-4.1669-1.941 2.2768-.428c.833-.155 2.3843-.517 2.704-1.375.2489-.602-.3072-1.049-.7825-1.024-.5313.027-1.0538.223-1.4895.47-.3268.185-.7404.319-1.4895.47.6389-.65 1.2558-1.187 1.1988-2.277-.0219-.42-.1749-.664-.5384-.645-.5592.029-.9509.582-1.584 1.344l-1.3207 1.555c-.116-.61-.2481-1.529-.2788-2.116-.0613-1.174-.2053-1.784-.4098-1.941-.2045-.158-.3737-.177-.4576-.173-1.0066.053-.9317 4.171-.7919 4.163zm18.323-.957c-.084.005-1.077-.757-1.551-1.236-.888-.907-1.471-1.326-1.751-1.311-.391.021-.602.284-.743.796-.072.228-.228.46-.215.712.019.364 1.193 1.368 2.396 1.866-1.633-.139-2-.176-2.363-.157-1.063.055-1.576.419-1.54 1.118.018.335.169.552.828.825.487.199.935.176 1.382.153.615-.033 2.13-.028 3.383-.177l-1.16 1.939c-.878 1.448-1.225 1.242-1.2 1.717.023.447.448 1.07.756 1.054.531-.028 1.239-.429 2.462-2.792.078 2.042.436 2.977 1.135 2.941.643-.034.962-.359.932-.946-.012-.224-.084-1.061-.397-2.755 1.039.562 2.343 1.363 3.63 1.857.543.196.884.29 1.024.283.336-.018 1.128-.424 1.096-1.039-.027-.503-.499-.955-.974-.93l-4.167-1.942 2.277-.427c.833-.156 2.384-.517 2.704-1.375.248-.602-.308-1.049-.783-1.024-.531.027-1.054.223-1.489.47-.327.185-.741.319-1.49.47.639-.65 1.256-1.187 1.199-2.277-.022-.42-.175-.664-.539-.645-.559.029-.95.582-1.584 1.344l-1.32 1.555c-.116-.61-.248-1.529-.279-2.116-.061-1.174-.205-1.784-.41-1.941-.204-.158-.374-.177-.457-.173-1.007.053-.932 4.171-.792 4.163zm18.322-.957c-.084.005-1.077-.757-1.55-1.237-.889-.906-1.471-1.325-1.751-1.31-.392.02-.602.284-.744.796-.072.228-.228.46-.215.712.019.364 1.193 1.368 2.397 1.866-1.634-.139-2-.176-2.363-.157-1.063.055-1.577.418-1.54 1.117.017.336.169.552.828.826.487.199.934.176 1.382.152.615-.032 2.129-.027 3.383-.176l-1.16 1.939c-.878 1.448-1.225 1.242-1.2 1.717.023.447.448 1.07.756 1.054.531-.028 1.239-.429 2.461-2.792.079 2.042.436 2.977 1.135 2.94.643-.033.963-.358.932-.945-.011-.224-.083-1.062-.396-2.756 1.039.563 2.342 1.364 3.63 1.858.543.196.884.29 1.024.283.335-.018 1.127-.424 1.095-1.039-.026-.503-.498-.955-.974-.93l-4.167-1.942 2.277-.427c.833-.156 2.385-.517 2.704-1.375.249-.602-.307-1.049-.782-1.025-.532.028-1.054.224-1.49.471-.327.185-.74.319-1.489.47.639-.65 1.256-1.187 1.199-2.277-.022-.42-.175-.664-.539-.645-.559.029-.951.582-1.584 1.344l-1.321 1.555c-.116-.611-.248-1.529-.278-2.116-.062-1.175-.206-1.784-.41-1.941-.205-.158-.374-.177-.458-.173-1.006.053-.931 4.171-.792 4.163zm18.323-.957c-.084.004-1.077-.757-1.551-1.237-.888-.907-1.471-1.325-1.75-1.31-.392.02-.602.284-.744.796-.072.228-.228.46-.215.712.019.363 1.193 1.368 2.397 1.865-1.634-.139-2-.176-2.364-.157-1.062.056-1.576.419-1.54 1.118.018.336.169.552.829.826.487.199.934.176 1.381.152.616-.032 2.13-.027 3.384-.176l-1.161 1.939c-.877 1.448-1.225 1.241-1.2 1.717.024.447.449 1.07.756 1.054.532-.028 1.24-.429 2.462-2.792.079 2.042.436 2.977 1.135 2.94.643-.033.963-.358.932-.946-.012-.223-.084-1.061-.396-2.755 1.038.563 2.342 1.364 3.629 1.858.543.195.885.29 1.025.282.335-.017 1.127-.423 1.095-1.038-.026-.503-.499-.955-.974-.931l-4.167-1.941 2.277-.427c.833-.156 2.384-.517 2.704-1.375.249-.602-.307-1.049-.783-1.025-.531.028-1.053.224-1.489.471-.327.185-.74.319-1.49.47.639-.65 1.256-1.187 1.199-2.278-.022-.419-.175-.663-.538-.644-.559.029-.951.582-1.584 1.344l-1.321 1.555c-.116-.611-.248-1.529-.279-2.116-.061-1.175-.205-1.784-.409-1.942-.205-.157-.374-.176-.458-.172-1.007.053-.932 4.17-.792 4.163z" fill="#034ea6"/><path d="m83.0069 172.333c-.0839.004-1.077-.757-1.5506-1.237-.8886-.907-1.4712-1.325-1.7508-1.31-.3914.02-.602.283-.7435.795-.0722.228-.2283.461-.2151.713.019.363 1.193 1.367 2.3966 1.865-1.6335-.139-1.9999-.176-2.3634-.157-1.0626.056-1.5763.419-1.5398 1.118.0175.336.169.552.8282.826.487.199.9344.175 1.3818.152.6152-.032 2.1295-.027 3.3834-.177l-1.1604 1.939c-.8777 1.448-1.2249 1.242-1.2001 1.717.0234.448.4484 1.071.756 1.054.5313-.027 1.2393-.429 2.4617-2.792.0787 2.043.4359 2.978 1.135 2.941.6431-.034.9626-.359.9319-.946-.0117-.224-.0835-1.061-.3963-2.755 1.0388.563 2.3424 1.364 3.6299 1.857.5429.196.8843.29 1.0241.283.3355-.017 1.1275-.423 1.0953-1.038-.0263-.504-.4985-.956-.9738-.931l-4.167-1.941 2.2768-.427c.833-.156 2.3843-.518 2.704-1.375.2489-.602-.3072-1.05-.7825-1.025-.5313.028-1.0538.223-1.4895.47-.3268.186-.7404.319-1.4895.471.6389-.651 1.2558-1.187 1.1988-2.278-.0219-.419-.1749-.664-.5384-.645-.5592.029-.9509.583-1.584 1.345l-1.3207 1.555c-.116-.611-.2481-1.529-.2788-2.117-.0613-1.174-.2053-1.783-.4098-1.941-.2045-.157-.3737-.177-.4576-.172-1.0066.052-.9317 4.17-.7919 4.163zm18.3231-.957c-.084.004-1.077-.757-1.5511-1.237-.8885-.907-1.4711-1.325-1.7507-1.311-.3915.021-.602.284-.7435.796-.0722.228-.2283.461-.2151.712.0189.364 1.1929 1.368 2.3965 1.866-1.6334-.139-1.9999-.176-2.3634-.157-1.0625.056-1.5763.419-1.5397 1.118.0175.335.169.552.8282.826.487.199.9344.175 1.3818.152.6151-.032 2.1295-.027 3.383-.177l-1.1601 1.939c-.8776 1.448-1.2249 1.242-1.2 1.717.0233.448.4484 1.07.756 1.054.5311-.027 1.2391-.429 2.4621-2.792.078 2.043.435 2.977 1.135 2.941.643-.034.962-.359.931-.946-.011-.224-.083-1.061-.396-2.755 1.039.562 2.343 1.364 3.63 1.857.543.196.884.29 1.024.283.336-.017 1.128-.423 1.095-1.039-.026-.503-.498-.955-.973-.93l-4.167-1.941 2.276-.428c.834-.155 2.385-.517 2.704-1.375.249-.601-.307-1.049-.782-1.024-.531.028-1.054.223-1.49.47-.326.186-.74.319-1.489.471.639-.651 1.256-1.188 1.199-2.278-.022-.419-.175-.664-.539-.645-.559.029-.951.583-1.584 1.345l-1.32 1.555c-.116-.611-.248-1.53-.279-2.117-.061-1.174-.205-1.783-.41-1.941-.204-.158-.374-.177-.458-.172-1.006.052-.931 4.17-.791 4.163zm18.322-.957c-.084.004-1.077-.757-1.55-1.237-.889-.907-1.472-1.325-1.751-1.311-.392.021-.602.284-.744.796-.072.228-.228.461-.215.712.019.364 1.193 1.368 2.397 1.866-1.634-.139-2-.176-2.364-.157-1.062.055-1.576.419-1.539 1.118.017.335.169.552.828.826.487.199.934.175 1.382.152.615-.032 2.129-.027 3.383-.177l-1.16 1.939c-.878 1.448-1.225 1.242-1.2 1.717.023.448.448 1.07.756 1.054.531-.028 1.239-.429 2.461-2.792.079 2.043.436 2.977 1.135 2.941.643-.034.963-.359.932-.946-.012-.224-.083-1.061-.396-2.755 1.039.562 2.342 1.363 3.63 1.857.543.196.884.29 1.024.283.335-.018 1.127-.423 1.095-1.039-.026-.503-.498-.955-.974-.93l-4.167-1.941 2.277-.428c.833-.155 2.384-.517 2.704-1.375.249-.601-.307-1.049-.782-1.024-.532.028-1.054.223-1.49.47-.327.185-.74.319-1.489.47.639-.65 1.255-1.187 1.198-2.277-.021-.42-.174-.664-.538-.645-.559.029-.951.582-1.584 1.344l-1.321 1.556c-.116-.611-.248-1.53-.278-2.117-.062-1.174-.206-1.784-.41-1.941-.205-.158-.374-.177-.458-.172-1.006.052-.932 4.17-.792 4.163zm18.323-.958c-.084.005-1.077-.756-1.551-1.236-.888-.907-1.471-1.325-1.75-1.311-.392.021-.602.284-.744.796-.072.228-.228.461-.215.712.019.364 1.193 1.368 2.396 1.866-1.633-.139-1.999-.176-2.363-.157-1.062.055-1.576.419-1.54 1.118.018.335.169.552.829.826.487.198.934.175 1.381.152.615-.032 2.13-.027 3.384-.177l-1.161 1.939c-.877 1.448-1.225 1.242-1.2 1.717.024.447.449 1.07.756 1.054.532-.028 1.24-.429 2.462-2.792.079 2.043.436 2.977 1.135 2.941.643-.034.962-.359.932-.946-.012-.224-.084-1.061-.396-2.755 1.038.562 2.342 1.363 3.629 1.857.543.196.885.29 1.025.283.335-.018 1.127-.424 1.095-1.039-.026-.503-.499-.955-.974-.93l-4.167-1.941 2.277-.428c.833-.155 2.384-.517 2.704-1.375.249-.602-.307-1.049-.783-1.024-.531.027-1.053.223-1.489.47-.327.185-.741.319-1.49.47.639-.65 1.256-1.187 1.199-2.277-.022-.42-.175-.664-.538-.645-.559.029-.951.582-1.584 1.344l-1.321 1.555c-.116-.61-.248-1.529-.279-2.116-.061-1.174-.205-1.784-.41-1.941-.204-.158-.373-.177-.457-.173-1.007.053-.932 4.171-.792 4.163zm18.323-.957c-.084.005-1.077-.757-1.551-1.237-.889-.906-1.471-1.325-1.751-1.31-.391.02-.602.284-.743.796-.072.228-.229.46-.215.712.019.364 1.193 1.368 2.396 1.866-1.633-.139-2-.176-2.363-.157-1.063.055-1.577.418-1.54 1.118.018.335.169.551.828.825.487.199.935.176 1.382.153.615-.033 2.129-.028 3.383-.177l-1.16 1.939c-.878 1.448-1.225 1.242-1.2 1.717.023.447.448 1.07.756 1.054.531-.028 1.239-.429 2.462-2.792.078 2.042.436 2.977 1.135 2.941.643-.034.962-.359.931-.946-.011-.224-.083-1.061-.396-2.755 1.039.562 2.343 1.363 3.63 1.857.543.196.884.29 1.024.283.336-.018 1.128-.424 1.096-1.039-.027-.503-.499-.955-.974-.93l-4.167-1.942 2.277-.427c.833-.156 2.384-.517 2.703-1.375.249-.602-.307-1.049-.782-1.024-.531.027-1.054.223-1.49.47-.326.185-.74.319-1.489.47.639-.65 1.256-1.187 1.199-2.277-.022-.42-.175-.664-.539-.645-.559.029-.95.582-1.584 1.344l-1.32 1.555c-.116-.611-.248-1.529-.279-2.116-.061-1.174-.205-1.784-.41-1.941-.204-.158-.374-.177-.457-.173-1.007.053-.932 4.171-.792 4.163z" fill="#034ea6"/><path d="m58.564 152.211s32.4432-5.688 55.617-8.848c23.174-3.16 53.931-14.747 53.931-14.747" stroke="#034ea6" stroke-linecap="round" stroke-linejoin="round" stroke-width="2"/><path d="m1560.67 283.101c.12-1.125-.72-2.108-1.84-2.19l-133.24-9.694c-1.13-.083-2.11.802-2.14 1.941-1.4 45.56-7.35 88.561-16.05 134.659-.22 1.168.61 2.272 1.8 2.37l140.8 11.615c1.18.098 2.2-.845 2.18-2.036-.15-8.089-.42-37.143 2.09-68.209 2.53-31.306 5.57-60.618 6.4-68.456z" fill="#ffd480"/><path d="m1525.26 315.094c.09.006 1.09-.737 1.58-1.208.9-.89 1.49-1.297 1.77-1.277.39.028.6.295.73.81.07.229.22.464.2.716-.02.363-1.22 1.345-2.43 1.82 1.64-.108 2-.138 2.37-.112 1.06.075 1.56.448 1.51 1.146-.02.335-.18.549-.84.81-.49.19-.94.158-1.38.126-.62-.043-2.13-.067-3.38-.24l1.12 1.961c.85 1.464 1.2 1.264 1.17 1.739-.03.447-.47 1.061-.78 1.04-.53-.038-1.23-.453-2.41-2.838-.11 2.04-.49 2.968-1.19 2.919-.64-.046-.95-.377-.91-.964.02-.223.1-1.059.45-2.747-1.05.543-2.37 1.32-3.67 1.789-.54.185-.89.273-1.03.263-.33-.023-1.12-.444-1.07-1.059.03-.502.51-.945.99-.912l4.2-1.862-2.27-.47c-.83-.172-2.37-.562-2.67-1.426-.24-.606.32-1.043.8-1.009.53.037 1.05.243 1.48.498.32.191.73.333 1.48.498-.63-.662-1.23-1.21-1.16-2.3.03-.419.19-.66.55-.634.56.039.94.6 1.56 1.374l1.29 1.579c.13-.608.28-1.524.32-2.11.08-1.173.24-1.78.45-1.934.21-.153.37-.169.46-.163 1 .071.85 4.187.71 4.177zm-18.3-1.302c.08.006 1.09-.736 1.57-1.207.91-.89 1.5-1.297 1.78-1.277.39.027.6.295.73.809.07.23.22.465.2.716-.03.364-1.22 1.345-2.43 1.821 1.63-.109 2-.139 2.36-.113 1.07.076 1.57.448 1.52 1.147-.02.335-.18.548-.84.81-.49.19-.94.158-1.39.126-.61-.044-2.12-.067-3.37-.24l1.12 1.96c.85 1.464 1.2 1.265 1.17 1.74-.04.446-.47 1.061-.78 1.039-.53-.038-1.23-.452-2.41-2.838-.12 2.041-.49 2.969-1.19 2.919-.64-.046-.95-.377-.91-.963.01-.224.1-1.059.45-2.747-1.05.543-2.37 1.319-3.67 1.788-.54.186-.89.274-1.03.264-.33-.024-1.12-.445-1.07-1.059.03-.503.51-.946.99-.912l4.2-1.863-2.27-.47c-.83-.171-2.37-.561-2.68-1.425-.23-.607.33-1.044.81-1.01.53.038 1.05.243 1.48.498.32.192.73.333 1.48.499-.63-.662-1.24-1.211-1.16-2.3.03-.419.19-.66.55-.635.56.04.94.601 1.56 1.374l1.29 1.58c.13-.609.28-1.524.32-2.111.08-1.173.24-1.779.45-1.933.2-.154.37-.17.46-.164 1 .072.85 4.187.71 4.177zm-18.3-1.301c.08.006 1.09-.736 1.57-1.207.91-.89 1.5-1.298 1.78-1.278.39.028.59.295.73.81.06.229.22.465.2.716-.03.363-1.22 1.345-2.43 1.82 1.63-.108 2-.138 2.36-.112 1.06.075 1.57.448 1.52 1.146-.02.335-.18.549-.84.811-.49.189-.94.157-1.39.126-.61-.044-2.13-.068-3.38-.241l1.13 1.961c.85 1.464 1.2 1.264 1.17 1.739-.04.447-.47 1.062-.78 1.04-.53-.038-1.23-.453-2.41-2.838-.12 2.041-.49 2.968-1.19 2.919-.64-.046-.96-.377-.91-.964.01-.223.1-1.059.44-2.747-1.04.543-2.36 1.32-3.66 1.789-.55.186-.89.274-1.03.264-.33-.024-1.12-.445-1.07-1.059.03-.503.51-.946.99-.912l4.2-1.863-2.27-.47c-.83-.171-2.37-.562-2.68-1.426-.23-.606.33-1.043.81-1.009.53.037 1.04.243 1.48.498.32.191.73.333 1.48.498-.63-.662-1.24-1.21-1.16-2.299.03-.419.19-.661.55-.635.56.04.94.6 1.56 1.374l1.29 1.58c.13-.609.28-1.525.32-2.111.08-1.173.24-1.78.44-1.933.21-.154.38-.17.47-.164 1 .071.85 4.187.71 4.177zm-18.3-1.301c.08.006 1.09-.737 1.57-1.208.91-.89 1.5-1.297 1.78-1.277.39.028.59.295.72.81.07.229.22.464.21.716-.03.363-1.22 1.345-2.43 1.82 1.63-.108 2-.138 2.36-.113 1.06.076 1.57.449 1.52 1.147-.02.335-.18.549-.84.81-.49.19-.94.158-1.39.126-.61-.043-2.13-.067-3.38-.24l1.13 1.961c.85 1.464 1.2 1.264 1.16 1.739-.03.447-.46 1.061-.77 1.039-.53-.037-1.23-.452-2.41-2.838-.12 2.041-.49 2.969-1.19 2.919-.64-.045-.96-.376-.91-.963.01-.223.1-1.059.44-2.747-1.05.543-2.36 1.319-3.66 1.789-.55.185-.89.273-1.03.263-.34-.024-1.12-.444-1.08-1.059.04-.503.52-.946 1-.912l4.2-1.862-2.27-.47c-.83-.172-2.37-.562-2.68-1.426-.24-.606.33-1.043.8-1.01.53.038 1.05.243 1.48.499.33.191.74.333 1.48.498-.62-.662-1.23-1.211-1.15-2.3.03-.419.19-.66.55-.634.56.039.94.6 1.56 1.374l1.29 1.579c.13-.608.28-1.524.32-2.111.08-1.173.24-1.779.44-1.933.21-.154.38-.17.46-.164 1.01.072.86 4.188.72 4.178zm-18.3-1.302c.08.006 1.09-.736 1.57-1.207.91-.89 1.5-1.297 1.77-1.278.4.028.6.295.73.81.07.23.22.465.21.716-.03.363-1.22 1.345-2.44 1.82 1.64-.108 2.01-.138 2.37-.112 1.06.075 1.57.448 1.52 1.147-.03.335-.18.548-.85.81-.49.189-.93.158-1.38.126-.61-.044-2.13-.067-3.38-.24l1.12 1.96c.85 1.464 1.21 1.265 1.17 1.739-.03.447-.47 1.062-.77 1.04-.53-.038-1.23-.452-2.41-2.838-.12 2.041-.49 2.969-1.19 2.919-.64-.046-.96-.377-.92-.963.02-.224.11-1.06.45-2.747-1.05.542-2.37 1.319-3.66 1.788-.55.186-.89.274-1.03.264-.34-.024-1.12-.445-1.08-1.059.04-.503.52-.946.99-.912l4.21-1.863-2.27-.47c-.83-.171-2.38-.562-2.68-1.425-.24-.607.33-1.044.8-1.01.53.038 1.05.243 1.48.498.33.192.74.333 1.48.498-.62-.662-1.23-1.21-1.15-2.299.03-.419.18-.661.55-.635.56.04.94.6 1.56 1.374l1.29 1.58c.12-.609.27-1.524.32-2.111.08-1.173.23-1.78.44-1.933.21-.154.38-.17.46-.164 1.01.072.86 4.187.72 4.177z" fill="#034ea6"/><rect fill="#0572ec" height="107.003" rx="20.7103" width="107.003" x="472.936" y="313.074"/><circle cx="526.438" cy="366.576" fill="#034ea6" r="34.5172"/><path clip-rule="evenodd" d="m535.93 355.358c0 5.151-4.142 11.14-9.492 11.14s-9.492-5.989-9.492-11.14c0-2.518 1-4.932 2.78-6.712 1.78-1.781 4.195-2.781 6.712-2.781 2.518 0 4.932 1 6.712 2.781 1.78 1.78 2.78 4.194 2.78 6.712zm-12.944 14.592h6.904c3.66.004 7.17 1.46 9.758 4.048 2.589 2.589 4.045 6.098 4.049 9.759 0 .366-.116.722-.332 1.018-.215.295-.519.515-.868.626-5.241 1.356-10.648 1.965-16.059 1.807-5.411.158-10.818-.451-16.059-1.807-.349-.111-.653-.331-.868-.626-.216-.296-.332-.652-.332-1.018.005-3.661 1.461-7.17 4.049-9.759 2.588-2.588 6.098-4.044 9.758-4.048z" fill="#ffd480" fill-rule="evenodd"/></g></svg>